<?xml version="1.0" encoding="utf-8"?>
<!-- Generator: Adobe Illustrator 19.2.1, SVG Export Plug-In . SVG Version: 6.00 Build 0)  -->
<svg version="1.1" id="layer" xmlns="http://www.w3.org/2000/svg" xmlns:xlink="http://www.w3.org/1999/xlink" x="0px" y="0px"
	 viewBox="0 0 652 652" style="enable-background:new 0 0 652 652;" xml:space="preserve">
<style type="text/css">
	.st0{fill:#435363;}
	.st1{fill:#00AFAA;}
	.st2{fill:#D9272E;}
</style>
<g>
	<path class="st0" d="M392.4,363.2c0,0,35.5-72.1-40.3-72.1c-66.5,0-88.2,58.4-92.1,72.6c-7.6,28,5.9,51,40.9,51c35,0,52.8,0,52.8,0
		l7-24.1l-49.2-0.1c0,0-35.6,1.3-21.5-27.3H392.4z M348.4,313.3c31.2,0,19.6,25.4,19.6,25.4h-67.1
		C300.9,338.7,315.3,313.3,348.4,313.3"/>
	<polygon class="st0" points="417.7,414.9 387.3,414.9 445.7,230.1 476,230.1 	"/>
	<polygon class="st0" points="468,414.9 437.6,414.9 475.4,295.9 505.8,295.9 	"/>
	<polygon class="st0" points="514,268.3 483.7,268.3 493.6,235.5 524,235.5 	"/>
</g>
<g>
	<path class="st0" d="M483,415.3h66c5.5,0,43.4-0.4,52.8-39.1c8-33.1-27.4-33.9-32.8-33.9h-19.2c-3.4,0-19.6,0.9-11-12.2
		c5.2-8,13.6-10.7,19.8-10.7c3.9,0,54.1-0.2,54.1-0.2l8-23.1l-57.1-0.2c0,0-35.1-1.8-50.8,27.2c-16.2,30.1,9.7,42.2,28.2,42.2h24.4
		c3,0,12.4,1.1,8.9,11.2c-3,8.7-13.4,13.9-20,14.1c-4,0.2-62.9,0-62.9,0L483,415.3z"/>
	<path class="st1" d="M112.2,358.1c-0.1,0-0.1,0-0.2,0c-3.3,0-6.5-1.4-8.5-3.7c-2-2.3-2.9-5.2-2.9-7.8c0-3.2,1.2-6.5,3.7-9.1
		c2.4-2.5,23.1-23.2,34-34.1c-4.2-4-7.3-6.9-8-7.7c-4.2-4.2-11.2-3.9-10.5-3.8H27.1c-6.9,0-7.8,7.9-4.1,11.6
		c2.9,2.9,31.3,31.4,38.9,39c6.7,6.7,6.1,11,6.1,11s0.6,4.3-6.1,11.1c-7.6,7.6-36,36.1-38.9,39c-3.7,3.7-2.7,11.6,4.1,11.6h92.8
		c0,0,6.4,0.1,10.4-3.8c3.1-3.1,49.1-46.8,49.1-46.8s2.9-2.4,4.4-6.5H112.2z"/>
	<path class="st2" d="M153,291.2c0,0,0.6,4.3-6.1,11c-7.6,7.6-36,36.1-38.9,39c-3.7,3.7-2.7,11.6,4.2,11.6H205c0,0,6.4,0.1,10.4-3.8
		c3.1-3.1,49.1-46.8,49.1-46.8s5.2-4.3,5.2-10.8v-0.4c0-6.6-5.2-10.8-5.2-10.8s-46-43.7-49.1-46.8c-3.9-4-10.4-3.9-10.4-3.9h-92.8
		c-6.9,0-7.8,7.9-4.2,11.6c2.9,2.9,31.3,31.4,38.9,39C153.6,286.8,153,291.2,153,291.2"/>
</g>
</svg>
